<svg width="78" height="78" viewBox="0 0 78 78" fill="none" xmlns="http://www.w3.org/2000/svg">
<g filter="url(#filter0_d_87_27620)">
<rect x="9" y="5" width="60" height="60" fill="white"/>
</g>
<path d="M50.513 39.8641C49.7178 41.7447 48.474 43.4018 46.8904 44.6907C45.3067 45.9795 43.4315 46.8608 41.4286 47.2575C39.4256 47.6542 37.356 47.5542 35.4007 46.9663C33.4453 46.3784 31.6638 45.3204 30.2118 43.8849C28.7598 42.4494 27.6815 40.68 27.0713 38.7315C26.4611 36.783 26.3375 34.7147 26.7113 32.7074C27.085 30.7 27.9449 28.8148 29.2156 27.2166C30.4862 25.6184 32.1291 24.3557 34.0005 23.5391" stroke="#54BD95" stroke-width="2" stroke-linecap="round" stroke-linejoin="round"/>
<path d="M51.5 35C51.5 33.3585 51.1767 31.733 50.5485 30.2165C49.9203 28.6999 48.9996 27.3219 47.8388 26.1612C46.6781 25.0004 45.3001 24.0797 43.7835 23.4515C42.267 22.8233 40.6415 22.5 39 22.5V35H51.5Z" stroke="#54BD95" stroke-width="2" stroke-linecap="round" stroke-linejoin="round"/>
<defs>
<filter id="filter0_d_87_27620" x="0" y="0" width="78" height="78" filterUnits="userSpaceOnUse" color-interpolation-filters="sRGB">
<feFlood flood-opacity="0" result="BackgroundImageFix"/>
<feColorMatrix in="SourceAlpha" type="matrix" values="0 0 0 0 0 0 0 0 0 0 0 0 0 0 0 0 0 0 127 0" result="hardAlpha"/>
<feOffset dy="4"/>
<feGaussianBlur stdDeviation="4.5"/>
<feComposite in2="hardAlpha" operator="out"/>
<feColorMatrix type="matrix" values="0 0 0 0 0 0 0 0 0 0 0 0 0 0 0 0 0 0 0.05 0"/>
<feBlend mode="normal" in2="BackgroundImageFix" result="effect1_dropShadow_87_27620"/>
<feBlend mode="normal" in="SourceGraphic" in2="effect1_dropShadow_87_27620" result="shape"/>
</filter>
</defs>
</svg>
